# xmcd
#
# Track frame offsets:
#	150
#	12920
#	28102
#	53547
#	63992
#	76565
#	87735
#	98682
#	109825
#	119882
#	132990
#	148735
#	161220
#	170422
#	183070
#	198872
#
# Disc length: 2888
#
# Revision: 1
# Processed by: cddbd v1.5.1PL0 Copyright (c) Steve Scherf et al.
# Submitted via: ExactAudioCopy v0.90b4
# Normalized: r0:DSETVAR1
#
DISCID=d50b4610
DTITLE=Various Artist - Kings of the Blues Guitar
DYEAR=1992
DGENRE=Blues
TTITLE0=T-Bone Walker - Stormy Monday Blues
TTITLE1=Muddy Waters - Honey Bee
TTITLE2=Eric Clapton - Smokestack Lightning
TTITLE3=Buddy Guy - First Time I Met The Blues
TTITLE4=Jimmy Reed - Big Boss Man
TTITLE5=Elmore James - Rollin' And Tumblin'
TTITLE6=Jeff Beck - Shapes Of Things
TTITLE7=Johnny Winter - Gangster Of Love
TTITLE8=John Lee Hooker - Dimples
TTITLE9=Otis Rush - All Your Love
TTITLE10=Magic Sam - Easy Baby
TTITLE11=Albert King - California Blues
TTITLE12=Clarence "Gatemouth" Brown - Gate's Salty Blues
TTITLE13=Jimmy Rogers - Walkin' By Myself
TTITLE14=Fenton Robinson - The Sky Is Crying
TTITLE15=Lightnin' Hopkins - Back Door Friend
EXTD=
EXTT0=
EXTT1=
EXTT2=
EXTT3=
EXTT4=
EXTT5=
EXTT6=
EXTT7=
EXTT8=
EXTT9=
EXTT10=
EXTT11=
EXTT12=
EXTT13=
EXTT14=
EXTT15=
PLAYORDER=
